HIERARCHY
ROOT Hips
{
	OFFSET 0.000000 0.000000 0.000000 
	CHANNELS 6 Xposition Yposition Zposition Yrotation Zrotation Xrotation 
	JOINT Lumbar
	{
		OFFSET 0.000000 0.000000 0.000000 
		CHANNELS 3 Zrotation Xrotation Yrotation
		JOINT Neck
		{
			OFFSET 0.000000 0.445665 0.000000 
			CHANNELS 3 Zrotation Xrotation Yrotation
			End Site
			{
				OFFSET 0.000000 0.227535 0.000000 
			}
		}
		JOINT RightShoulder
		{
			OFFSET 0.019635 0.377685 0.194865 
			CHANNELS 3 Zrotation Xrotation Yrotation
			JOINT RightElbow
			{
				OFFSET 0.000000 -0.243375 0.000000 
				CHANNELS 2 Zrotation Yrotation
				JOINT RightWrist
				{
					OFFSET 0.000000 -0.264825 0.000000 
					CHANNELS 2 Zrotation Xrotation
					End Site
					{
						OFFSET 0.006600 -0.176220 0.000990 
					}
				}
			}
		}
		JOINT LeftShoulder
		{
			OFFSET 0.019635 0.377685 -0.194865 
			CHANNELS 3 Zrotation Xrotation Yrotation
			JOINT LeftElbow
			{
				OFFSET 0.000000 -0.243375 0.000000 
				CHANNELS 2 Zrotation Yrotation
				JOINT LeftWrist
				{
					OFFSET 0.000000 -0.264825 0.000000 
					CHANNELS 2 Zrotation Xrotation
					End Site
					{
						OFFSET 0.006600 -0.176220 -0.000990 
					}
				}
			}
		}
	}
	JOINT RightHip
	{
		OFFSET 0.052140 -0.069960 0.075570 
		CHANNELS 3 Zrotation Xrotation Yrotation
		JOINT RightKnee
		{
			OFFSET 0.000000 -0.402270 0.000000 
			CHANNELS 1 Zrotation
			JOINT RightAnkle
			{
				OFFSET 0.000000 -0.404085 0.000000 
				CHANNELS 3 Zrotation Xrotation Yrotation
				End Site
				{
					OFFSET 0.204105 -0.089430 0.008415 
				}
			}
		}
	}
	JOINT LeftHip
	{
		OFFSET 0.052140 -0.069960 -0.075570 
		CHANNELS 3 Zrotation Xrotation Yrotation
		JOINT LeftKnee
		{
			OFFSET 0.000000 -0.402270 0.000000 
			CHANNELS 1 Zrotation
			JOINT LeftAnkle
			{
				OFFSET 0.000000 -0.404085 0.000000 
				CHANNELS 3 Zrotation Xrotation Yrotation
				End Site
				{
					OFFSET 0.204105 -0.089430 -0.008415 
				}
			}
		}
	}
}
MOTION
Frames: 31
Frame Time: 0.02
-0.00082 -0.00014 0.00105 -175.79919 -30.94666 -2.63293 44.18049 2.77031 -4.91529 -7.7037 -2.03416 -0.14315 -25.5357 -12.35831 -1.49816 32.40305 73.54169 2.7088 -3.54352 -33.58664 11.77729 2.47097 35.64132 -98.31785 14.79278 0.12015 34.18719 -0.85309 -7.51886 -21.07372 -8.19362 -4.50197 -3.11595 35.17001 7.96804 2.7219 -26.73172 -9.04384 5.02214 3.45784
-0.00044 -8e-05 0.00068 -175.85294 -30.96411 -2.63228 44.18382 2.74477 -4.94487 -7.76897 -2.0546 -0.14339 -25.11516 -12.28976 -1.75129 32.56741 76.85932 3.42477 -2.88633 -32.93851 11.86341 2.04554 35.79612 -98.1895 14.69882 0.13108 34.23641 -0.85406 -7.64689 -21.05405 -8.191 -4.49476 -3.11022 35.21354 7.99951 2.78942 -26.7324 -9.04459 5.02052 3.45553
-7e-05 -2e-05 0.00031 -175.90659 -30.98156 -2.63161 44.18707 2.71929 -4.97447 -7.83433 -2.075 -0.14363 -24.69502 -12.22187 -2.00232 32.73149 80.16254 4.13776 -2.23204 -32.29137 11.94949 1.62062 35.95084 -98.06114 14.60497 0.14202 34.28567 -0.85501 -7.77459 -21.03446 -8.18838 -4.48756 -3.10451 35.25709 8.03091 2.8568 -26.73308 -9.04534 5.0189 3.45322
0.0003 3e-05 -5e-05 -175.96019 -30.99897 -2.63096 44.19038 2.69382 -5.00397 -7.89944 -2.09537 -0.14387 -24.27564 -12.1536 -2.25445 32.89537 83.46914 4.85137 -1.57704 -31.64508 12.03538 1.19638 36.10522 -97.93312 14.51127 0.15293 34.33476 -0.85598 -7.90225 -21.01485 -8.18577 -4.48037 -3.0988 35.30051 8.06229 2.92411 -26.73375 -9.04609 5.01729 3.45091
0.00067 9e-05 -0.00042 -176.01386 -31.01637 -2.63034 44.19377 2.66832 -5.03342 -7.96438 -2.11579 -0.14411 -23.85618 -12.08449 -2.5092 33.05949 86.79208 5.56833 -0.91875 -30.99815 12.12125 0.77192 36.25957 -97.80526 14.41754 0.16383 34.38377 -0.85696 -8.0302 -20.99514 -8.18315 -4.47318 -3.09307 35.34386 8.09371 2.99153 -26.73443 -9.04683 5.01567 3.4486
0.00105 0.00015 -0.00079 -176.06747 -31.03391 -2.62957 44.19672 2.64287 -5.06334 -8.03062 -2.13613 -0.14436 -23.43463 -12.01916 -2.75242 33.22347 90.05386 6.27299 -0.27283 -30.35063 12.20778 0.34603 36.41506 -97.67587 14.32342 0.17484 34.43355 -0.85785 -8.15736 -20.97581 -8.18052 -4.46599 -3.08739 35.3878 8.12508 3.05882 -26.73511 -9.0476 5.01406 3.4463
0.00141 0.00021 -0.00115 -176.12113 -31.05114 -2.6291 44.20061 2.61733 -5.09227 -8.0941 -2.15659 -0.14459 -23.01779 -11.94633 -3.01846 33.38747 93.43391 7.00136 0.39701 -29.70506 12.29283 -0.07645 36.56802 -97.54968 14.23018 0.18561 34.4817 -0.85893 -8.286 -20.95572 -8.17792 -4.45879 -3.08163 35.4305 8.15651 3.1263 -26.73579 -9.04832 5.01244 3.44398
0.00178 0.00027 -0.00152 -176.17477 -31.06866 -2.62834 44.20353 2.5919 -5.12211 -8.16025 -2.17698 -0.14484 -22.59654 -11.88036 -3.26366 33.55161 96.70712 7.70834 1.04524 -29.05763 12.37933 -0.50219 36.72345 -97.42058 14.13614 0.19662 34.53139 -0.85982 -8.41322 -20.93635 -8.1753 -4.4516 -3.07594 35.47438 8.1879 3.1936 -26.73646 -9.04909 5.01082 3.44168
0.00217 0.00033 -0.0019 -176.22831 -31.08654 -2.62727 44.20566 2.5665 -5.15313 -8.22928 -2.19715 -0.14511 -22.16982 -11.82303 -3.48246 33.71542 99.84153 8.38744 1.66543 -28.4077 12.46733 -0.93175 36.88148 -97.28764 14.04103 0.20785 34.58284 -0.86055 -8.53899 -20.91779 -8.17265 -4.4444 -3.07035 35.5196 8.21919 3.26072 -26.73713 -9.04991 5.00921 3.4394
0.00248 0.00039 -0.00224 -176.28219 -31.1024 -2.62815 44.21351 2.54061 -5.17756 -8.28059 -2.21818 -0.14525 -21.77433 -11.71676 -3.85034 33.87962 103.74988 9.22177 2.44206 -27.77142 12.54592 -1.33889 37.02329 -97.17592 13.95179 0.21761 34.62381 -0.86242 -8.67398 -20.89439 -8.17014 -4.43719 -3.06421 35.55683 8.25093 3.32901 -26.73783 -9.05039 5.00758 3.43699
0.00297 0.00044 -0.00265 -176.33551 -31.12247 -2.62479 44.20854 2.51594 -5.21575 -8.36999 -2.23763 -0.14567 -21.31324 -11.71321 -3.90564 34.04391 106.04134 9.73192 2.89178 -27.10698 12.64482 -1.79349 37.20006 -97.02004 13.85037 0.23058 34.68712 -0.86173 -8.78893 -20.88129 -8.16735 -4.43006 -3.05922 35.61107 8.28176 3.39476 -26.73846 -9.05163 5.00599 3.43487
0.00395 0.00049 -0.00326 -176.38591 -31.15434 -2.61051 44.17366 2.49312 -5.29331 -8.55903 -2.2509 -0.14685 -20.66776 -11.99888 -3.07817 34.20115 103.7192 9.31603 2.40934 -26.35912 12.79646 -2.37837 37.46807 -96.73686 13.7135 0.25165 34.81022 -0.85531 -8.85337 -20.89593 -8.16359 -4.4227 -3.05737 35.71103 8.30982 3.45388 -26.73875 -9.05468 5.00451 3.43342
0.00514 0.00053 -0.00395 -176.43589 -31.19023 -2.59178 44.1245 2.47181 -5.38438 -8.78712 -2.26292 -0.14835 -19.95748 -12.38634 -1.94152 34.35986 99.80547 8.58123 1.60498 -25.58434 12.96904 -3.01068 37.77206 -96.41057 13.56488 0.27605 34.95588 -0.8461 -8.897 -20.92096 -8.15957 -4.41549 -3.05667 35.82811 8.33698 3.51022 -26.73895 -9.05856 5.00309 3.43228
0.00624 0.00058 -0.00462 -176.48709 -31.22432 -2.57465 44.07894 2.45075 -5.46824 -9.00066 -2.27676 -0.14968 -19.27934 -12.72244 -0.96258 34.52264 96.73641 8.01636 0.971 -24.8256 13.13403 -3.62152 38.06268 -96.10786 13.42279 0.29943 35.09243 -0.83731 -8.94705 -20.9416 -8.15578 -4.40852 -3.05543 35.93817 8.36477 3.56784 -26.73931 -9.06224 5.00167 3.43106
0.00729 0.00063 -0.00522 -176.53439 -31.25897 -2.55945 44.04725 2.4257 -5.55672 -9.20122 -2.28537 -0.15098 -18.58858 -13.08031 0.08989 34.66534 93.15484 7.34591 0.23527 -24.04982 13.291 -4.23299 38.34082 -95.78782 13.27517 0.32083 35.2249 -0.83205 -9.00927 -20.961 -8.15151 -4.40029 -3.05426 36.04566 8.39177 3.6261 -26.73931 -9.06511 5.00014 3.42957
0.00851 0.00067 -0.00597 -176.58915 -31.29259 -2.539 43.98118 2.40938 -5.63869 -9.43754 -2.30453 -0.15255 -17.91015 -13.41694 1.06214 34.8503 90.25965 6.819 -0.36556 -23.30431 13.46953 -4.85328 38.65347 -95.49416 13.13689 0.34704 35.37033 -0.81885 -9.04197 -20.98529 -8.14818 -4.39467 -3.05323 36.16183 8.42003 3.68148 -26.73984 -9.06994 4.99885 3.42872
0.01012 0.0007 -0.00707 -176.66935 -31.32963 -2.50656 43.84166 2.4163 -5.70004 -9.76761 -2.35356 -0.15381 -17.27032 -13.66943 1.7385 35.15031 89.69142 6.77487 -0.50671 -22.63914 13.70322 -5.49552 39.0521 -95.28286 13.02284 0.38615 35.55397 -0.78393 -8.99285 -21.02187 -8.14754 -4.3964 -3.05225 36.30451 8.45298 3.73592 -26.74373 -9.07953 4.99821 3.42958
0.01191 0.00074 -0.00832 -176.75609 -31.36444 -2.4687 43.66475 2.43208 -5.75419 -10.13147 -2.41313 -0.1555 -16.64743 -13.8969 2.32271 35.49258 89.86345 6.88514 -0.50195 -22.00723 13.95767 -6.14319 39.48391 -95.10194 12.91998 0.42957 35.74876 -0.74135 -8.91653 -21.06282 -8.1478 -4.40063 -3.05135 36.45451 8.48681 3.78544 -26.74787 -9.09127 4.99786 3.43111
0.01364 0.00077 -0.00951 -176.83688 -31.39513 -2.43242 43.49303 2.44411 -5.81132 -10.47691 -2.46765 -0.15764 -16.02404 -14.13643 2.9487 35.81692 89.66698 6.91879 -0.57006 -21.3665 14.20215 -6.78237 39.90139 -94.90507 12.81422 0.47117 35.93273 -0.7024 -8.85522 -21.1008 -8.14768 -4.40366 -3.05053 36.59616 8.51985 3.8343 -26.75062 -9.10215 4.99727 3.43225
0.01529 0.0008 -0.01064 -176.93068 -31.44642 -2.39982 43.37028 2.45492 -5.87044 -10.8367 -2.5234 -0.15712 -15.36736 -14.37744 3.58762 36.13776 89.5425 6.96683 -0.6238 -20.69813 14.44983 -7.44887 40.31862 -94.70693 12.69655 0.5137 36.14022 -0.66214 -8.7788 -21.14303 -8.14764 -4.40727 -3.04943 36.75781 8.55538 3.89918 -26.75856 -9.11204 4.99684 3.43356
0.01714 0.00083 -0.01194 -176.99839 -31.45576 -2.35818 43.13728 2.47049 -5.92316 -11.17405 -2.5789 -0.16217 -14.78567 -14.60706 4.17155 36.47359 89.47447 7.02788 -0.66604 -20.09575 14.69524 -8.05885 40.74172 -94.53026 12.60933 0.5535 36.30303 -0.62355 -8.73166 -21.17764 -8.14739 -4.40989 -3.0487 36.88156 8.58485 3.92465 -26.756 -9.12513 4.9965 3.43491
0.01944 0.00087 -0.01361 -176.99675 -31.33671 -2.29413 42.60503 2.49604 -5.96315 -11.44143 -2.6326 -0.18296 -14.40092 -14.8198 4.6432 36.86005 89.3018 7.06971 -0.73354 -19.66607 14.9314 -8.51352 41.18975 -94.30493 12.57786 0.60083 36.32319 -0.58497 -8.73598 -21.18701 -8.14862 -4.4126 -3.05105 36.8801 8.60725 3.8873 -26.72232 -9.14093 4.99315 3.43399
0.02193 0.00092 -0.01545 -176.96756 -31.17807 -2.2209 41.96374 2.52627 -5.9963 -11.68475 -2.68529 -0.20924 -14.09258 -15.01993 5.05815 37.25621 89.18106 7.12375 -0.78948 -19.30197 15.16402 -8.91052 41.63886 -94.11477 12.58051 0.64297 36.30119 -0.54932 -8.77612 -21.18902 -8.14931 -4.41375 -3.05348 36.84395 8.62213 3.80408 -26.67847 -9.16072 4.99031 3.4334
0.02436 0.00096 -0.01723 -176.94852 -31.04601 -2.15118 41.37531 2.55496 -6.03041 -11.93883 -2.73765 -0.2327 -13.75341 -15.21969 5.48609 37.63545 89.09945 7.18576 -0.83441 -18.909 15.39682 -9.33225 42.07669 -93.98019 12.58559 0.67593 36.30897 -0.51689 -8.82537 -21.19644 -8.14863 -4.41318 -3.05438 36.83555 8.63336 3.70992 -26.6406 -9.18265 4.98955 3.43426
0.0267 0.001 -0.01894 -176.94082 -30.87715 -2.08431 40.77245 2.58138 -6.07331 -12.19518 -2.79423 -0.25753 -13.39804 -15.44411 5.96416 38.07013 88.78682 7.19763 -0.9408 -18.51358 15.63653 -9.7603 42.5627 -93.56245 12.51931 0.75468 36.27147 -0.46596 -8.77224 -21.19549 -8.15431 -4.4223 -3.06118 36.77564 8.67254 3.74157 -26.59689 -9.18884 4.97974 3.42887
0.02927 0.00104 -0.02084 -176.90149 -30.77616 -2.00912 40.17319 2.61368 -6.09641 -12.44021 -2.841 -0.28082 -13.09472 -15.61486 6.32651 38.38968 88.94696 7.31268 -0.92119 -18.138 15.86058 -10.16161 42.94635 -93.71995 12.60462 0.74061 36.3192 -0.45316 -8.93399 -21.2099 -8.14721 -4.41165 -3.05621 36.81613 8.65409 3.51063 -26.56307 -9.22766 4.98801 3.43597
0.03235 0.00108 -0.02322 -176.79294 -30.86759 -1.91557 39.61964 2.65982 -6.06611 -12.66342 -2.86631 -0.29845 -12.91377 -15.6372 6.3741 38.40185 90.49692 7.72841 -0.53093 -17.80432 16.04329 -10.50106 43.06246 -95.65831 13.1448 0.43735 36.60386 -0.55577 -9.7439 -21.27103 -8.09957 -4.33953 -3.01436 37.13083 8.45736 2.47494 -26.55805 -9.36509 5.05376 3.48252
0.03566 0.00112 -0.0258 -176.65113 -31.02986 -1.81348 39.07187 2.71202 -6.01621 -12.87536 -2.88066 -0.31434 -12.78336 -15.60681 6.30914 38.29596 92.4999 8.24355 -0.01924 -17.48742 16.20995 -10.81571 43.07246 -98.14216 13.82924 0.0463 36.97776 -0.69495 -10.75802 -21.34746 -8.04004 -4.24883 -2.96143 37.55045 8.20632 1.19177 -26.56369 -9.53366 5.13636 3.54075
0.0389 0.00116 -0.0283 -176.51734 -31.1624 -1.71389 38.5158 2.76203 -5.9756 -13.0898 -2.89658 -0.33107 -12.63102 -15.60266 6.30229 38.23449 94.2274 8.69983 0.41882 -17.16079 16.38333 -11.14341 43.12081 -100.23732 14.41669 -0.28101 37.31588 -0.80997 -11.6359 -21.41508 -7.98949 -4.17148 -2.9165 37.9288 7.99457 0.08376 -26.56486 -9.68147 5.20606 3.59021
0.04201 0.0012 -0.03075 -176.41349 -31.28198 -1.62016 37.98024 2.80929 -5.9332 -13.31396 -2.9272 -0.3478 -12.47545 -15.58794 6.26468 38.20926 96.24817 9.21341 0.93328 -16.846 16.55953 -11.4626 43.21101 -102.90558 15.13281 -0.7054 37.63054 -0.9558 -12.69452 -21.4899 -7.92396 -4.07369 -2.85923 38.27652 7.72296 -1.28321 -26.56338 -9.8564 5.29743 3.65397
0.04544 0.00125 -0.03334 -176.23854 -31.44737 -1.5119 37.40425 2.86432 -5.8899 -13.51617 -2.92419 -0.36402 -12.33952 -15.58353 6.26435 38.08429 97.76848 9.63233 1.31975 -16.50884 16.72545 -11.79309 43.18871 -104.5375 15.62127 -0.9531 38.0181 -1.04751 -13.42955 -21.55394 -7.88665 -4.01366 -2.82479 38.71635 7.56062 -2.17814 -26.57097 -9.98334 5.34825 3.69113
